<svg xmlns="http://www.w3.org/2000/svg" width="517" height="742.4" viewBox="0 0 517 742.4"><title>deer</title><path d="M489,780l-87-73-49-70-50-70-7-35,11-68,10-62V367l-29-25-13-29V280l-58-39-41-44-30-52V86l12,34,18-54,29-27-9,54,30-40-3,26,32-13L239,93l-16,71,10,45,32,38,10-6,13-68v36l8,45,37,33,24,6-10-46,10-50,4,39,12,69,34,18h26l27-36,20-63,5,30-5,33,51-46,9-38-40-66L467,86h33l40,51,23,46,16-28-6-35,18,7-7-52,28,37,14,25-25,52-22,58-36,33-39,21-44,28,7,5,37-21,21,4-4,25-32,25-29,11-15,34,22,35,76,22,76,22,34,15,9,67-18,75-43,68-76,37-52-73,85-43,33-78,4-53-32-11-32-10-27-8-24-13,55,76-58,38-64,30-40-56L327,346l-10-17-4-20,20,8,9,17,15,33h16l4,11h68l-32,57-11,12v34l31,4,16-21-12-25,43-82-7-11,27-7Z" transform="translate(-145.5 -38.6)" fill="#fff"/><path d="M489,780l-87-73-49-70-50-70-7-35,11-68,10-62V367l-29-25-13-29V280l-58-39-41-44-30-52V86l12,34,18-54,29-27-9,54,30-40-3,26,32-13L239,93l-16,71,10,45,32,38,10-6,13-68v36l8,45,37,33,24,6-10-46,10-50,4,39,12,69,34,18h26l27-36,20-63,5,30-5,33,51-46,9-38-40-66L467,86h33l40,51,23,46,16-28-6-35,18,7-7-52,28,37,14,25-25,52-22,58-36,33-39,21-44,28,7,5,37-21,21,4-4,25-32,25-29,11-15,34,22,35,76,22,76,22,34,15,9,67-18,75-43,68-76,37-52-73,85-43,33-78,4-53-32-11-32-10-27-8-24-13,55,76-58,38-64,30-40-56L327,346l-10-17-4-20,20,8,9,17,15,33h16l4,11h68l-32,57-11,12v34l31,4,16-21-12-25,43-82-7-11,27-7Z" transform="translate(-145.5 -38.6)" fill="none" stroke="#000" stroke-linecap="square" stroke-miterlimit="3"/></svg>