<svg xmlns="http://www.w3.org/2000/svg" width="410.6" height="326.5" viewBox="0 0 410.6 326.5" style="isolation:isolate" >
	<title>suntest</title>
	<path d="M0.5 212.5 7.5 167.5 23.5 118.5 60.5 66.5 105.5 30.5 145.5 11.5 181.5 5.5 208.5 0.5 246.5 7.5 271.5 14.5 312.5 31.5 339.5 51.5 361.5 78.5 382.5 106.5 399.5 135.5 407.5 167.5 412.5 199.5 412.5 232.5 412.5 259.5 405.5 285.5 393.5 312.5 380.5 327.5 0.5 327.5 0.5 305.5 379.5 308.5 396.5 287.5 0.5 285.5 0.5 263.5 394.5 268.5 402.5 243.5 14.5 243.5 7.5 223.5 401.5 222.5 406.5 195.5 28.5 198.5 14.5 176.5 398.5 174.5 391.5 149.5 21.5 164 29.5 139.5 379.5 129.5 365.5 104.5 43.5 112.5 65.5 89.5 347.5 81.5 328.5 62.5 80.5 68.5 109.5 49.5 308.5 45.5 271.5 30.5 128.5 31.5 86.5 55.5 57.5 83.5 32.5 126.5 9.5 193.5 0.5 243.5 0.5 212.5" fill-rule="evenodd" fill="none" vector-effect="non-scaling-stroke" stoke-width="1" stroke="rgb(0, 0, 0)" stroke-linejoin="miter" stroke-linecap="square" stroke-miterlimit="3"/>
</svg>